<svg width="19" height="19" viewBox="0 0 19 19" fill="none" xmlns="http://www.w3.org/2000/svg">
<g clip-path="url(#clip0)">
<path d="M1.79951 9.48104L5.04732 6.23877L5.0474 6.2387C5.32801 5.95808 5.32801 5.50464 5.0474 5.22402C4.7668 4.94343 4.31151 4.94341 4.03089 5.22396L1.79951 9.48104ZM1.79951 9.48104L5.04735 12.7252L5.0474 12.7252C5.32801 13.0058 5.32801 13.4593 5.0474 13.7399C4.76678 14.0205 4.31143 14.0205 4.03082 13.7399L0.27458 9.98936L0.274149 9.98893C-0.00408268 9.7084 -0.00408243 9.25552 0.274149 8.97499L0.274579 8.97455L4.03082 5.22402L1.79951 9.48104ZM13.9527 12.7252L13.9526 12.7252C13.672 13.0058 13.672 13.4593 13.9526 13.7399C14.2332 14.0205 14.6885 14.0205 14.9692 13.7399C14.9692 13.7399 14.9692 13.7399 14.9692 13.7399L18.7233 9.98966C18.7233 9.98963 18.7233 9.9896 18.7233 9.98957C19.0062 9.70892 19.0062 9.2551 18.7234 8.97442C18.7234 8.97437 18.7233 8.97432 18.7233 8.97426L14.9692 5.22402C14.6886 4.94341 14.2332 4.94341 13.9526 5.22402C13.672 5.50464 13.672 5.95808 13.9526 6.2387L13.9527 6.23877L17.2005 9.48104L13.9527 12.7252ZM6.43356 17.2857L6.43373 17.2858L6.43688 17.2795L13.8568 2.45868C14.0592 2.10163 13.9384 1.64761 13.5834 1.44054C13.2265 1.23234 12.7717 1.3564 12.5665 1.71434L12.5663 1.71425L12.5631 1.72055L5.14324 16.5413C4.94113 16.8979 5.06111 17.354 5.41662 17.5595C5.77354 17.7677 6.22837 17.6436 6.43356 17.2857Z" fill="#195B97" stroke="#195B97" stroke-width="0.25"/>
</g>
<defs>
<clipPath id="clip0">
<rect width="19" height="19" fill="white"/>
</clipPath>
</defs>
</svg>
