<svg width="24" height="24" viewBox="0 0 24 24" fill="none" xmlns="http://www.w3.org/2000/svg">
<path d="M23.1938 11.3156L20.8219 8.99996C18.4734 6.70778 15.3422 5.44684 12 5.44684C8.65782 5.44684 5.52657 6.70778 3.17813 8.99996L0.806255 11.3156C0.276568 11.8922 0.604693 12.5062 0.806255 12.6843L3.17813 15C5.52657 17.2922 8.65782 18.5531 12 18.5531C15.3422 18.5531 18.4734 17.2922 20.8219 15L23.1938 12.6843C23.3813 12.5062 23.7422 11.9156 23.1938 11.3156ZM12 15.2718C10.1953 15.2718 8.72813 13.8047 8.72813 12C8.72813 10.1953 10.1953 8.72809 12 8.72809C13.8047 8.72809 15.2719 10.1953 15.2719 12C15.2719 13.8047 13.8047 15.2718 12 15.2718ZM2.84532 12L4.51876 10.3687C5.78438 9.13121 7.32188 8.24996 9.0047 7.77184C7.68282 8.71403 6.82032 10.2562 6.82032 11.9953C6.82032 13.7343 7.68282 15.2812 9.0047 16.2187C7.32188 15.7406 5.78438 14.8593 4.51876 13.6265L2.84532 12ZM19.486 13.6312C18.2203 14.864 16.6828 15.7453 15 16.2234C16.3219 15.2812 17.1844 13.739 17.1844 12C17.1844 10.2562 16.3219 8.71403 15 7.77653C16.6828 8.25465 18.2203 9.1359 19.486 10.3734L21.1547 12.0047L19.486 13.6312Z" fill="white"/>
</svg>
