<svg width="149" height="149" viewBox="0 0 149 149" fill="none" xmlns="http://www.w3.org/2000/svg">
<g opacity="0.8">
<path fill-rule="evenodd" clip-rule="evenodd" d="M44.7 42.2167V37.25H42.2167V42.2167H37.25V44.7H42.2167V49.6667H44.7V44.7H49.6667V42.2167H44.7ZM44.7 4.96667V0H42.2167V4.96667H37.25V7.45H42.2167V12.4167H44.7V7.45H49.6667V4.96667H44.7ZM7.45 42.2167V37.25H4.96667V42.2167H0V44.7H4.96667V49.6667H7.45V44.7H12.4167V42.2167H7.45ZM7.45 4.96667V0H4.96667V4.96667H0V7.45H4.96667V12.4167H7.45V7.45H12.4167V4.96667H7.45Z" fill="white"/>
<g clip-path="url(#clip0)">
<path fill-rule="evenodd" clip-rule="evenodd" d="M119.2 42.2167V37.25H116.717V42.2167H111.75V44.7H116.717V49.6667H119.2V44.7H124.167V42.2167H119.2ZM119.2 4.96667V0H116.717V4.96667H111.75V7.45H116.717V12.4167H119.2V7.45H124.167V4.96667H119.2ZM81.95 42.2167V37.25H79.4667V42.2167H74.5V44.7H79.4667V49.6667H81.95V44.7H86.9167V42.2167H81.95ZM81.95 4.96667V0H79.4667V4.96667H74.5V7.45H79.4667V12.4167H81.95V7.45H86.9167V4.96667H81.95Z" fill="white"/>
</g>
<g clip-path="url(#clip1)">
<path fill-rule="evenodd" clip-rule="evenodd" d="M44.7 116.717V111.75H42.2167V116.717H37.25V119.2H42.2167V124.167H44.7V119.2H49.6667V116.717H44.7ZM44.7 79.4667V74.5H42.2167V79.4667H37.25V81.95H42.2167V86.9167H44.7V81.95H49.6667V79.4667H44.7ZM7.45 116.717V111.75H4.96667V116.717H0V119.2H4.96667V124.167H7.45V119.2H12.4167V116.717H7.45ZM7.45 79.4667V74.5H4.96667V79.4667H0V81.95H4.96667V86.9167H7.45V81.95H12.4167V79.4667H7.45Z" fill="white"/>
</g>
<g clip-path="url(#clip2)">
<path fill-rule="evenodd" clip-rule="evenodd" d="M119.2 116.717V111.75H116.717V116.717H111.75V119.2H116.717V124.167H119.2V119.2H124.167V116.717H119.2ZM119.2 79.4667V74.5H116.717V79.4667H111.75V81.95H116.717V86.9167H119.2V81.95H124.167V79.4667H119.2ZM81.95 116.717V111.75H79.4667V116.717H74.5V119.2H79.4667V124.167H81.95V119.2H86.9167V116.717H81.95ZM81.95 79.4667V74.5H79.4667V79.4667H74.5V81.95H79.4667V86.9167H81.95V81.95H86.9167V79.4667H81.95Z" fill="white"/>
</g>
</g>
<defs>
<clipPath id="clip0">
<rect width="74.5" height="74.5" fill="white" transform="translate(74.5)"/>
</clipPath>
<clipPath id="clip1">
<rect width="74.5" height="74.5" fill="white" transform="translate(0 74.5)"/>
</clipPath>
<clipPath id="clip2">
<rect width="74.5" height="74.5" fill="white" transform="translate(74.5 74.5)"/>
</clipPath>
</defs>
</svg>
