<svg width="22" height="22" viewBox="0 0 22 22" fill="none" xmlns="http://www.w3.org/2000/svg">
<path d="M9.41478 10.035H12.9297V12.2109C16.2626 12.0463 18.5172 11.4294 19.8785 10.8986C20.9674 10.4738 21.6475 10.0472 22 9.79162V6.56142C22 5.92188 21.4815 5.40356 20.8421 5.40356H17.6579V3.28065C17.6579 2.21652 16.7921 1.35089 15.7281 1.35089H6.27191C5.20795 1.35089 4.34215 2.21652 4.34215 3.28065V5.40338H1.15786C0.518462 5.4036 0 5.92188 0 6.56146V9.76183C0.912725 10.3633 3.7951 11.9277 9.41478 12.209V10.035ZM5.88597 3.28065C5.88597 3.06776 6.05919 2.89472 6.27191 2.89472H15.7281C15.9408 2.89472 16.1141 3.06776 16.1141 3.28065V5.40338H5.88597V3.28065Z" fill="white"/>
<path d="M1.15786 20.6491H20.8421C21.4817 20.6491 22 20.1306 22 19.4912V13.3157V11.39C20.5506 12.2104 17.7271 13.3393 12.9297 13.5642V14.1703C12.9297 15.0839 12.1892 15.8245 11.2756 15.8245H11.0688C10.1552 15.8245 9.41463 15.0839 9.41463 14.1703V13.5623C4.48298 13.3284 1.50416 12.1528 0 11.338V13.3157V19.4912C0 20.1307 0.518462 20.6491 1.15786 20.6491ZM20.6492 16.5965V19.2982H17.9475C17.9473 17.8048 19.1558 16.5965 20.6492 16.5965ZM1.35083 16.5965C2.84422 16.5965 4.05248 17.805 4.05248 19.2982H1.35083V16.5965Z" fill="white"/>
</svg>
