<svg width="676" height="101" viewBox="0 0 676 101" fill="none" xmlns="http://www.w3.org/2000/svg">
<g clip-path="url(#clip0)">
<path d="M3.69623 77.6741C20.4121 67.4933 37.128 36.9512 70.5598 36.9512C103.992 36.9512 103.992 77.6741 137.423 77.6741C170.855 77.6741 170.855 36.9512 204.287 36.9512C237.719 36.9512 237.719 77.6741 271.15 77.6741C304.582 77.6741 304.582 36.9512 338.014 36.9512C371.445 36.9512 371.445 77.6741 404.877 77.6741C438.309 77.6741 438.309 36.9512 471.741 36.9512C505.172 36.9512 505.172 77.6741 538.604 77.6741C572.035 77.6741 572.035 36.9512 605.467 36.9512C638.899 36.9512 655.615 67.4933 672.331 77.6741" stroke="#1A93C7" stroke-opacity="0.17" stroke-width="20"/>
<path d="M4.8045 66.4831C21.5204 56.3023 38.2363 25.7603 71.6681 25.7603C105.1 25.7603 105.1 66.4831 138.532 66.4831C171.963 66.4831 171.963 25.7603 205.395 25.7603C238.827 25.7603 238.827 66.4831 272.258 66.4831C305.69 66.4831 305.69 25.7603 339.122 25.7603C372.554 25.7603 372.554 66.4831 405.985 66.4831C439.417 66.4831 439.417 25.7603 472.849 25.7603C506.281 25.7603 506.281 66.4831 539.712 66.4831C573.144 66.4831 573.144 25.7603 606.576 25.7603C640.007 25.7603 656.723 56.3023 673.439 66.4831" stroke="#195B97" stroke-width="5"/>
</g>
<defs>
<clipPath id="clip0">
<rect width="676" height="101" fill="white"/>
</clipPath>
</defs>
</svg>
