<?xml version="1.0" encoding="utf-8"?>
<!-- Generator: Adobe Illustrator 23.0.1, SVG Export Plug-In . SVG Version: 6.00 Build 0)  -->
<svg version="1.1" id="Слой_1" xmlns="http://www.w3.org/2000/svg" xmlns:xlink="http://www.w3.org/1999/xlink" x="0px" y="0px"
	 viewBox="0 0 1441 487" style="enable-background:new 0 0 1441 487;" xml:space="preserve">
<style type="text/css">
	.st0{fill:url(#SVGID_1_);fill-opacity:0.88;}
	.st1{fill:url(#SVGID_2_);}
	.st2{fill:url(#SVGID_3_);fill-opacity:0.75;}
</style>
<g>
	
		<linearGradient id="SVGID_1_" gradientUnits="userSpaceOnUse" x1="620.2162" y1="207.5397" x2="1444.7283" y2="233.7106" gradientTransform="matrix(1 0 0 -1 0 487.9999)">
		<stop  offset="0" style="stop-color:#2B9FD1"/>
		<stop  offset="0.9999" style="stop-color:#71E7FF"/>
		<stop  offset="1" style="stop-color:#2FDCFF"/>
		<stop  offset="1" style="stop-color:#2FDCFF"/>
	</linearGradient>
	<path class="st0" d="M1442,486H1V180C716,199.5,574.9,76.5,1029.2,37.2C1165.3,25.4,1226.4,48.7,1442,69V486z"/>
</g>
<g>
	
		<linearGradient id="SVGID_2_" gradientUnits="userSpaceOnUse" x1="1095.9847" y1="393.1861" x2="257.9856" y2="-34.1079" gradientTransform="matrix(1 0 0 -1 0 487.9999)">
		<stop  offset="0" style="stop-color:#3994FF"/>
		<stop  offset="1" style="stop-color:#0063AB"/>
	</linearGradient>
	<path class="st1" d="M615.7,85.4C647.5,328.5,1182.9,278.9,1441,214l-0.5,272H0V88.1C163.9-14.3,599-42.5,615.7,85.4z"/>
</g>
<g>
	
		<linearGradient id="SVGID_3_" gradientUnits="userSpaceOnUse" x1="721.5001" y1="335.547" x2="721.5001" y2="1" gradientTransform="matrix(1 0 0 -1 0 487.9999)">
		<stop  offset="0.232" style="stop-color:#001744"/>
		<stop  offset="1" style="stop-color:#000000"/>
	</linearGradient>
	<path class="st2" d="M923,195c179.6-63.9,279-55.5,520-42.5V487H0V152.5c152,54,337,71.4,440,77C677,242.3,767,250.5,923,195z"/>
</g>
</svg>
